<svg width="17" height="14" viewBox="0 0 17 14" fill="none" xmlns="http://www.w3.org/2000/svg">
<path d="M6.5291 4.04801L11.9888 0.772711C12.6471 0.377377 13.4941 0.54536 13.9162 1.15532C14.0703 1.37749 14.149 1.63642 14.1613 1.90007C14.3648 1.79382 14.5863 1.73609 14.8117 1.73609C14.9272 1.73609 15.0431 1.75046 15.1576 1.77897C15.5244 1.87062 15.8335 2.09985 16.0279 2.42402C16.2225 2.74867 16.2793 3.12914 16.1877 3.49554C16.1031 3.83457 15.8969 4.1199 15.6102 4.31568C15.8107 4.43394 15.9836 4.59533 16.1066 4.80077C16.3012 5.12543 16.358 5.50571 16.2666 5.87254C16.1749 6.23889 15.9457 6.54798 15.621 6.74285L15.6192 6.74403C15.8161 6.86206 15.986 7.0218 16.1076 7.22418C16.3024 7.54883 16.3592 7.9293 16.2675 8.29612C16.1756 8.66271 15.9464 8.97181 15.6222 9.16644L8.95583 13.1657C7.71164 13.9119 6.27329 14.1694 4.90636 13.8902C3.52718 13.6084 2.38497 12.8157 1.69046 11.6579C0.591379 9.82614 0.756094 7.66193 2.11949 6.01014C2.18192 5.93475 2.24341 5.85794 2.29925 5.77831C2.35839 5.6942 2.42742 5.59524 2.45098 5.56132C2.5921 5.30923 4.89486 1.16033 4.89462 1.16082C5.12716 0.741219 5.56301 0.503706 6.01252 0.503947C6.22221 0.503947 6.43495 0.555544 6.63121 0.664392C6.86823 0.796798 7.06731 0.989751 7.20655 1.22229C7.4928 1.69938 7.50293 2.2964 7.2334 2.77957L6.5291 4.04801ZM6.56185 1.60907C6.48882 1.48727 6.38845 1.3902 6.2657 1.32141C6.01196 1.18099 5.69249 1.2724 5.5528 1.5252C3.90505 4.49375 3.34335 5.50538 3.12659 5.86539L3.13153 5.86657C3.11339 5.92688 3.11339 5.92688 2.91502 6.2103C2.84764 6.30619 2.77437 6.39831 2.69969 6.48901C1.52732 7.90945 1.39119 9.69694 2.33521 11.2709C2.91997 12.2458 3.8864 12.9142 5.0566 13.1531C6.23952 13.3937 7.48631 13.1699 8.56845 12.5206L15.2355 8.52108C15.3876 8.42991 15.4951 8.28501 15.538 8.11326C15.5808 7.94174 15.5542 7.7634 15.4628 7.61121C15.2748 7.29786 14.8665 7.19491 14.5532 7.38362L11.2642 9.35676C11.0861 9.46372 10.8548 9.40624 10.748 9.22789C10.6411 9.04978 10.6988 8.81865 10.8769 8.71169L14.1661 6.73855L15.2343 6.09773C15.3865 6.00632 15.4941 5.86142 15.537 5.69014C15.5799 5.51839 15.5533 5.33981 15.4619 5.18785C15.2736 4.87427 14.8653 4.77226 14.5522 4.96027L10.1948 7.57423C10.0163 7.68143 9.78561 7.62347 9.67865 7.44536C9.57169 7.26725 9.62965 7.03613 9.80752 6.92917L15.1554 3.72106C15.3076 3.62965 15.415 3.48498 15.4579 3.31324C15.5007 3.14172 15.4741 2.96337 15.3829 2.81118C15.2918 2.65922 15.1469 2.55178 14.9751 2.50891C14.8024 2.46603 14.6248 2.49265 14.4731 2.58359L13.4831 3.17754C13.4829 3.17754 13.4829 3.17777 13.4826 3.17777H13.4824L9.12525 5.79174C8.94667 5.89917 8.71578 5.84122 8.60905 5.66287C8.5021 5.48476 8.56005 5.25363 8.73793 5.14668L13.0953 2.53271C13.2475 2.4413 13.3552 2.2964 13.398 2.12512C13.4452 1.93712 13.4094 1.74487 13.2977 1.58372C13.104 1.30359 12.6898 1.22914 12.3758 1.41786L5.71361 5.41456C5.56778 5.50173 5.38095 5.48053 5.25867 5.36249C5.13616 5.24423 5.10859 5.05834 5.19105 4.90968L6.57638 2.41374C6.71539 2.16424 6.70997 1.85608 6.56178 1.60916L6.56185 1.60907Z" fill="#103E13"/>
</svg>
